<svg width="95" height="16" viewBox="0 0 95 16" fill="none" xmlns="http://www.w3.org/2000/svg">
<path d="M6.54568 15.9595C5.92719 15.9595 5.40148 15.8584 4.96853 15.6561C4.54246 15.4539 4.19198 15.201 3.9171 14.8976C3.64909 14.5874 3.43949 14.2773 3.2883 13.9671H3.14399V15.7775H0V0.707965H3.19553V6.38179H3.2883C3.43262 6.07164 3.63534 5.75811 3.89648 5.44121C4.1645 5.12432 4.51497 4.86136 4.94792 4.65234C5.38773 4.43658 5.92719 4.3287 6.5663 4.3287C7.41157 4.3287 8.18468 4.54446 8.88563 4.97598C9.59346 5.40076 10.1604 6.04467 10.5865 6.90771C11.0126 7.77075 11.2256 8.84956 11.2256 10.1441C11.2256 11.3982 11.0194 12.4602 10.6071 13.33C10.1948 14.193 9.63469 14.847 8.92687 15.292C8.21904 15.737 7.42531 15.9595 6.54568 15.9595ZM3.12337 10.134C3.12337 11.1319 3.33297 11.9376 3.75217 12.5512C4.17824 13.1648 4.77611 13.4716 5.54579 13.4716C6.32921 13.4716 6.92708 13.1614 7.33941 12.5411C7.75174 11.914 7.9579 11.1117 7.9579 10.134C7.9579 9.1496 7.75174 8.35061 7.33941 7.73704C6.93396 7.12347 6.33608 6.81669 5.54579 6.81669C4.77611 6.81669 4.17824 7.11673 3.75217 7.71681C3.33297 8.3169 3.12337 9.12263 3.12337 10.134Z" fill="black"/>
<path d="M18.5135 16C17.3521 16 16.3453 15.7573 15.4932 15.2718C14.6479 14.7796 13.995 14.0986 13.5346 13.2288C13.0811 12.3523 12.8543 11.3342 12.8543 10.1745C12.8543 9.00801 13.0811 7.98651 13.5346 7.10999C13.995 6.23346 14.6479 5.55247 15.4932 5.067C16.3453 4.5748 17.3521 4.3287 18.5135 4.3287C19.6817 4.3287 20.6885 4.5748 21.5337 5.067C22.3859 5.55247 23.0387 6.23346 23.4923 7.10999C23.9527 7.98651 24.1829 9.00801 24.1829 10.1745C24.1829 11.3342 23.9527 12.3523 23.4923 13.2288C23.0387 14.0986 22.3859 14.7796 21.5337 15.2718C20.6885 15.7573 19.6817 16 18.5135 16ZM16.1013 10.1542C16.1013 11.1386 16.3041 11.9511 16.7095 12.5917C17.115 13.2322 17.7197 13.5525 18.5238 13.5525C19.3209 13.5525 19.9222 13.2322 20.3277 12.5917C20.7331 11.9511 20.9359 11.1386 20.9359 10.1542C20.9359 9.16983 20.7331 8.36072 20.3277 7.72693C19.9222 7.09313 19.3209 6.77623 18.5238 6.77623C17.7197 6.77623 17.115 7.09313 16.7095 7.72693C16.3041 8.36072 16.1013 9.16983 16.1013 10.1542Z" fill="black"/>
<path d="M31.4811 16C30.3197 16 29.313 15.7573 28.4608 15.2718C27.6156 14.7796 26.9627 14.0986 26.5023 13.2288C26.0487 12.3523 25.8219 11.3342 25.8219 10.1745C25.8219 9.00801 26.0487 7.98651 26.5023 7.10999C26.9627 6.23346 27.6156 5.55247 28.4608 5.067C29.313 4.5748 30.3197 4.3287 31.4811 4.3287C32.6494 4.3287 33.6561 4.5748 34.5014 5.067C35.3536 5.55247 36.0064 6.23346 36.46 7.10999C36.9204 7.98651 37.1506 9.00801 37.1506 10.1745C37.1506 11.3342 36.9204 12.3523 36.46 13.2288C36.0064 14.0986 35.3536 14.7796 34.5014 15.2718C33.6561 15.7573 32.6494 16 31.4811 16ZM29.069 10.1542C29.069 11.1386 29.2717 11.9511 29.6772 12.5917C30.0826 13.2322 30.6874 13.5525 31.4914 13.5525C32.2886 13.5525 32.8899 13.2322 33.2954 12.5917C33.7008 11.9511 33.9035 11.1386 33.9035 10.1542C33.9035 9.16983 33.7008 8.36072 33.2954 7.72693C32.8899 7.09313 32.2886 6.77623 31.4914 6.77623C30.6874 6.77623 30.0826 7.09313 29.6772 7.72693C29.2717 8.36072 29.069 9.16983 29.069 10.1542Z" fill="black"/>
<path d="M39.2535 0.707965H42.449V8.76865H42.6242L46.3043 4.47029H49.974L45.7064 9.37547L50.1801 15.7775H46.4486L43.3149 11.2162L42.449 12.177V15.7775H39.2535V0.707965Z" fill="black"/>
<path d="M52.2933 15.7775V6.83692H50.6749V4.47029H52.2933V3.65107C52.2933 2.43068 52.6506 1.51707 53.3653 0.91024C54.0869 0.303413 54.9872 0 56.0661 0C56.5609 0 57.011 0.0404551 57.4164 0.121365C57.8288 0.195533 58.1311 0.259587 58.3236 0.313527L57.7566 2.65992C57.6329 2.62621 57.4817 2.5925 57.3031 2.55879C57.1244 2.52507 56.9354 2.50822 56.7361 2.50822C56.2688 2.50822 55.9389 2.6161 55.7465 2.83186C55.561 3.04088 55.4682 3.33755 55.4682 3.72187V4.47029H57.7669V6.83692H55.4682V15.7775H52.2933Z" fill="black"/>
<path d="M63.0138 15.9899C61.9142 15.9899 61.0003 15.7101 60.2718 15.1504C59.5502 14.5841 59.1895 13.7413 59.1895 12.622C59.1895 11.7792 59.3887 11.1184 59.7873 10.6397C60.1928 10.1542 60.7254 9.80025 61.3851 9.57775C62.0448 9.3485 62.7526 9.20017 63.5086 9.13274C64.5119 9.03835 65.2266 8.94058 65.6527 8.83944C66.0856 8.73156 66.3021 8.49557 66.3021 8.13148V8.08091C66.3021 7.61568 66.1509 7.25495 65.8485 6.99874C65.5462 6.74252 65.1098 6.61441 64.5394 6.61441C63.969 6.61441 63.5017 6.73578 63.1375 6.97851C62.7801 7.22124 62.543 7.53139 62.4262 7.90898L59.5193 7.45386C59.7942 6.46945 60.3715 5.70417 61.2511 5.15803C62.1376 4.60514 63.2371 4.3287 64.5497 4.3287C65.4018 4.3287 66.2024 4.46018 66.9515 4.72314C67.7074 4.98609 68.319 5.40076 68.7863 5.96713C69.2537 6.52676 69.4873 7.25495 69.4873 8.15171V15.7775H66.467V14.1997H66.3742C66.0925 14.7324 65.6733 15.1639 65.1166 15.4943C64.5669 15.8247 63.8659 15.9899 63.0138 15.9899ZM62.2304 12.5209C62.2304 12.9524 62.3884 13.2794 62.7045 13.5019C63.0275 13.7177 63.433 13.8255 63.9209 13.8255C64.6219 13.8255 65.1957 13.6266 65.6424 13.2288C66.0959 12.831 66.3227 12.3354 66.3227 11.7421V10.5386C66.199 10.6195 66.0031 10.6936 65.7351 10.7611C65.474 10.8285 65.1957 10.8858 64.9002 10.933C64.6047 10.9735 64.3401 11.0105 64.1064 11.0442C63.5429 11.1252 63.0894 11.2836 62.7458 11.5196C62.4022 11.7488 62.2304 12.0826 62.2304 12.5209Z" fill="black"/>
<path d="M77.2493 16C76.0673 16 75.0537 15.7539 74.2084 15.2617C73.3632 14.7695 72.7138 14.0851 72.2602 13.2086C71.8135 12.3321 71.5902 11.3207 71.5902 10.1745C71.5902 9.01475 71.8169 7.99663 72.2705 7.1201C72.7309 6.24357 73.3838 5.55921 74.2291 5.067C75.0743 4.5748 76.0777 4.3287 77.239 4.3287C78.2424 4.3287 79.122 4.50737 79.8779 4.86473C80.6339 5.22208 81.2317 5.7244 81.6715 6.37168C82.1114 7.01896 82.3519 7.78087 82.3931 8.6574H79.3831C79.2938 8.09777 79.0705 7.64602 78.7131 7.30215C78.3558 6.95154 77.8816 6.77623 77.2906 6.77623C76.5484 6.77623 75.954 7.06953 75.5073 7.65613C75.0606 8.23599 74.8372 9.06195 74.8372 10.134C74.8372 11.2128 75.0571 12.0523 75.497 12.6523C75.9436 13.2524 76.5415 13.5525 77.2906 13.5525C77.8403 13.5525 78.3042 13.3839 78.6822 13.0468C79.0601 12.7096 79.2938 12.2377 79.3831 11.6308H82.3931C82.345 12.4939 82.1079 13.2558 81.6819 13.9166C81.2558 14.5706 80.6648 15.083 79.9089 15.4539C79.1598 15.818 78.2733 16 77.2493 16Z" fill="black"/>
<path d="M89.7119 16C88.5299 16 87.5128 15.764 86.6607 15.292C85.8086 14.8201 85.1523 14.1492 84.6918 13.2794C84.2314 12.4029 84.0012 11.3679 84.0012 10.1745C84.0012 9.01475 84.228 7.99663 84.6815 7.1201C85.142 6.24357 85.7879 5.55921 86.6195 5.067C87.451 4.5748 88.4303 4.3287 89.5573 4.3287C90.5744 4.3287 91.4918 4.54109 92.3096 4.96587C93.1342 5.39064 93.7871 6.02781 94.2681 6.87737C94.756 7.72693 95 8.79225 95 10.0733V10.9229H87.1452C87.1795 11.7792 87.4338 12.4501 87.908 12.9355C88.3822 13.421 89.0006 13.6637 89.7635 13.6637C90.2926 13.6637 90.7462 13.5525 91.1241 13.33C91.509 13.1075 91.7839 12.7838 91.9488 12.359L94.8969 12.5512C94.6701 13.5895 94.1032 14.4256 93.1961 15.0594C92.2958 15.6865 91.1344 16 89.7119 16ZM87.1658 8.99115H91.9385C91.8629 8.27644 91.6292 7.71007 91.2375 7.29204C90.8458 6.874 90.296 6.66498 89.5882 6.66498C88.8735 6.66498 88.3066 6.88411 87.8874 7.32238C87.475 7.7539 87.2345 8.31016 87.1658 8.99115Z" fill="black"/>
</svg>
