<svg width="95" height="17" viewBox="0 0 95 17" fill="none" xmlns="http://www.w3.org/2000/svg">
<path d="M1.86325 16.7821V8.19487H0V5.23077H1.86325V4.48974C1.86325 4.08291 1.92311 3.62521 2.04284 3.11667C2.16257 2.59359 2.37957 2.09957 2.69386 1.63462C3.00814 1.15513 3.45712 0.762821 4.04078 0.457693C4.62445 0.152564 5.38771 0 6.33056 0C6.82444 0 7.22851 0.0363248 7.5428 0.108974C7.85708 0.167094 8.01422 0.196154 8.01422 0.196154V2.76795C8.01422 2.76795 7.93191 2.76068 7.76729 2.74615C7.61763 2.71709 7.46797 2.70256 7.31831 2.70256C6.71967 2.70256 6.30063 2.86239 6.06118 3.18205C5.82172 3.50171 5.702 3.93761 5.702 4.48974V5.23077H7.99177V8.19487H5.702V16.7821H1.86325Z" fill="black"/>
<path d="M12.5117 5.01282C13.2899 5.01282 13.9185 5.13633 14.3974 5.38333C14.8913 5.63034 15.2579 5.88462 15.4974 6.14615C15.7518 6.39316 15.894 6.54573 15.9239 6.60385H16.1035V5.23077H19.9423V16.7821H16.1035V15.409H15.9239C15.894 15.4671 15.7518 15.6269 15.4974 15.8885C15.2579 16.15 14.8913 16.4043 14.3974 16.6513C13.9185 16.8838 13.2899 17 12.5117 17C11.6437 17 10.8879 16.8329 10.2444 16.4987C9.60084 16.15 9.06207 15.6923 8.62806 15.1256C8.19405 14.5444 7.87228 13.8979 7.66276 13.1859C7.45324 12.4739 7.34848 11.7474 7.34848 11.0064C7.34848 10.2654 7.45324 9.53889 7.66276 8.82692C7.87228 8.11496 8.19405 7.47564 8.62806 6.90898C9.06207 6.32778 9.60084 5.87009 10.2444 5.5359C10.8879 5.18718 11.6437 5.01282 12.5117 5.01282ZM13.7239 7.99872C13.1702 7.99872 12.7063 8.15128 12.3321 8.45641C11.958 8.74701 11.6811 9.12479 11.5015 9.58974C11.3219 10.0402 11.2321 10.5124 11.2321 11.0064C11.2321 11.5004 11.3219 11.9799 11.5015 12.4449C11.6811 12.8953 11.958 13.2731 12.3321 13.5782C12.7063 13.8688 13.1702 14.0141 13.7239 14.0141C14.2777 14.0141 14.7341 13.8688 15.0933 13.5782C15.4675 13.2731 15.7443 12.8953 15.9239 12.4449C16.1185 11.9799 16.2158 11.5004 16.2158 11.0064C16.2158 10.5124 16.1185 10.0402 15.9239 9.58974C15.7443 9.12479 15.4675 8.74701 15.0933 8.45641C14.7341 8.15128 14.2777 7.99872 13.7239 7.99872Z" fill="black"/>
<path d="M26.6971 17C25.6195 17 24.6842 16.8329 23.891 16.4987C23.1127 16.15 22.4617 15.6923 21.9379 15.1256C21.4141 14.559 21.025 13.9197 20.7706 13.2077C20.5162 12.4957 20.3889 11.762 20.3889 11.0064C20.3889 10.2509 20.5162 9.51709 20.7706 8.80513C21.025 8.09316 21.4141 7.45385 21.9379 6.88718C22.4617 6.32051 23.1127 5.87009 23.891 5.5359C24.6842 5.18718 25.6195 5.01282 26.6971 5.01282C27.7896 5.01282 28.6875 5.16538 29.3909 5.47051C30.1093 5.77564 30.678 6.15342 31.097 6.60385C31.5161 7.05427 31.8229 7.5047 32.0174 7.95513C32.212 8.40556 32.3392 8.78333 32.3991 9.08846C32.4589 9.39359 32.4889 9.54615 32.4889 9.54615H28.9195C28.9195 9.54615 28.897 9.46624 28.8521 9.30641C28.8072 9.14658 28.71 8.95769 28.5603 8.73974C28.4256 8.5218 28.2161 8.33291 27.9317 8.17308C27.6474 8.01325 27.2732 7.93333 26.8093 7.93333C25.9413 7.93333 25.2903 8.23846 24.8563 8.84872C24.4372 9.44445 24.2277 10.1637 24.2277 11.0064C24.2277 11.8491 24.4372 12.5756 24.8563 13.1859C25.2903 13.7816 25.9413 14.0795 26.8093 14.0795C27.2732 14.0795 27.6474 13.9996 27.9317 13.8397C28.2161 13.6799 28.4256 13.491 28.5603 13.2731C28.71 13.0551 28.8072 12.8662 28.8521 12.7064C28.897 12.5466 28.9195 12.4667 28.9195 12.4667H32.4889C32.4889 12.4667 32.4589 12.6192 32.3991 12.9244C32.3392 13.2295 32.212 13.6073 32.0174 14.0577C31.8229 14.5081 31.5161 14.9585 31.097 15.409C30.678 15.8594 30.1093 16.2372 29.3909 16.5423C28.6875 16.8474 27.7896 17 26.6971 17Z" fill="black"/>
<path d="M38.6612 17C37.5986 17 36.6782 16.8329 35.9 16.4987C35.1218 16.15 34.4708 15.6923 33.947 15.1256C33.4381 14.5444 33.0565 13.8979 32.8021 13.1859C32.5626 12.4739 32.4429 11.7402 32.4429 10.9846C32.4429 10.2581 32.5626 9.53889 32.8021 8.82692C33.0415 8.11496 33.4082 7.47564 33.9021 6.90898C34.396 6.32778 35.0245 5.87009 35.7878 5.5359C36.566 5.18718 37.4864 5.01282 38.549 5.01282C39.6864 5.01282 40.6816 5.25256 41.5347 5.73205C42.4027 6.19701 43.0762 6.88718 43.5551 7.80256C44.0489 8.70342 44.2959 9.80043 44.2959 11.0936V11.9654H36.3041C36.349 12.5611 36.566 13.0842 36.9551 13.5346C37.3592 13.9705 37.9279 14.1885 38.6612 14.1885C39.215 14.1885 39.634 14.094 39.9184 13.9051C40.2177 13.7017 40.4197 13.4983 40.5245 13.2949C40.6292 13.0915 40.6816 12.9897 40.6816 12.9897H44.2061C44.2061 12.9897 44.1687 13.1278 44.0938 13.4038C44.019 13.6654 43.8768 13.9996 43.6673 14.4064C43.4578 14.7987 43.151 15.1983 42.7469 15.6051C42.3428 15.9974 41.8041 16.3316 41.1306 16.6077C40.4721 16.8692 39.649 17 38.6612 17ZM36.2816 9.80769H40.6143C40.5843 9.12479 40.3673 8.60897 39.9633 8.26026C39.5741 7.91154 39.0803 7.73718 38.4816 7.73718C37.898 7.73718 37.3966 7.91154 36.9776 8.26026C36.5735 8.60897 36.3415 9.12479 36.2816 9.80769Z" fill="black"/>
<path d="M52.023 17C51.2597 17 50.6312 16.8765 50.1373 16.6295C49.6434 16.3825 49.2768 16.1355 49.0373 15.8885C48.7979 15.6269 48.6632 15.4671 48.6332 15.409H48.4536V16.7821H44.6149V0.217949H48.4536V6.60385H48.6332C48.6632 6.54573 48.7979 6.3859 49.0373 6.12436C49.2768 5.86282 49.6434 5.61581 50.1373 5.38333C50.6312 5.13633 51.2597 5.01282 52.023 5.01282C52.906 5.01282 53.6692 5.18718 54.3128 5.5359C54.9563 5.87009 55.4876 6.32778 55.9066 6.90898C56.3406 7.47564 56.6624 8.11496 56.8719 8.82692C57.0964 9.53889 57.2087 10.2654 57.2087 11.0064C57.2087 11.7474 57.0964 12.4739 56.8719 13.1859C56.6624 13.8979 56.3406 14.5444 55.9066 15.1256C55.4876 15.6923 54.9563 16.15 54.3128 16.4987C53.6692 16.8329 52.906 17 52.023 17ZM50.8332 14.0141C51.3869 14.0141 51.8509 13.8688 52.225 13.5782C52.5992 13.2731 52.876 12.8953 53.0556 12.4449C53.2352 11.9799 53.325 11.5004 53.325 11.0064C53.325 10.5124 53.2352 10.0402 53.0556 9.58974C52.876 9.12479 52.5992 8.74701 52.225 8.45641C51.8509 8.15128 51.3869 7.99872 50.8332 7.99872C50.2795 7.99872 49.8155 8.15128 49.4414 8.45641C49.0672 8.74701 48.7904 9.12479 48.6108 9.58974C48.4312 10.0402 48.3414 10.5124 48.3414 11.0064C48.3414 11.5004 48.4312 11.9799 48.6108 12.4449C48.7904 12.8953 49.0672 13.2731 49.4414 13.5782C49.8155 13.8688 50.2795 14.0141 50.8332 14.0141Z" fill="black"/>
<path d="M63.5834 17C62.2365 17 61.0916 16.7239 60.1488 16.1718C59.2059 15.6197 58.4801 14.8859 57.9712 13.9705C57.4774 13.0551 57.2304 12.0671 57.2304 11.0064C57.2304 9.94573 57.4774 8.95769 57.9712 8.04231C58.4801 7.12692 59.2059 6.39316 60.1488 5.84103C61.0916 5.28889 62.2365 5.01282 63.5834 5.01282C64.9453 5.01282 66.0977 5.28889 67.0405 5.84103C67.9834 6.39316 68.7018 7.12692 69.1956 8.04231C69.7045 8.95769 69.9589 9.94573 69.9589 11.0064C69.9589 12.0671 69.7045 13.0551 69.1956 13.9705C68.7018 14.8859 67.9834 15.6197 67.0405 16.1718C66.0977 16.7239 64.9453 17 63.5834 17ZM63.5834 13.9923C64.3766 13.9923 64.9902 13.7017 65.4242 13.1205C65.8732 12.5248 66.0977 11.8201 66.0977 11.0064C66.0977 10.1927 65.8732 9.4953 65.4242 8.9141C64.9902 8.31838 64.3766 8.02051 63.5834 8.02051C62.8052 8.02051 62.1916 8.31838 61.7426 8.9141C61.2936 9.4953 61.0692 10.1927 61.0692 11.0064C61.0692 11.8201 61.2936 12.5248 61.7426 13.1205C62.1916 13.7017 62.8052 13.9923 63.5834 13.9923Z" fill="black"/>
<path d="M76.3389 17C74.992 17 73.8471 16.7239 72.9042 16.1718C71.9614 15.6197 71.2355 14.8859 70.7267 13.9705C70.2328 13.0551 69.9859 12.0671 69.9859 11.0064C69.9859 9.94573 70.2328 8.95769 70.7267 8.04231C71.2355 7.12692 71.9614 6.39316 72.9042 5.84103C73.8471 5.28889 74.992 5.01282 76.3389 5.01282C77.7008 5.01282 78.8532 5.28889 79.796 5.84103C80.7389 6.39316 81.4572 7.12692 81.9511 8.04231C82.4599 8.95769 82.7144 9.94573 82.7144 11.0064C82.7144 12.0671 82.4599 13.0551 81.9511 13.9705C81.4572 14.8859 80.7389 15.6197 79.796 16.1718C78.8532 16.7239 77.7008 17 76.3389 17ZM76.3389 13.9923C77.1321 13.9923 77.7457 13.7017 78.1797 13.1205C78.6287 12.5248 78.8532 11.8201 78.8532 11.0064C78.8532 10.1927 78.6287 9.4953 78.1797 8.9141C77.7457 8.31838 77.1321 8.02051 76.3389 8.02051C75.5607 8.02051 74.9471 8.31838 74.4981 8.9141C74.0491 9.4953 73.8246 10.1927 73.8246 11.0064C73.8246 11.8201 74.0491 12.5248 74.4981 13.1205C74.9471 13.7017 75.5607 13.9923 76.3389 13.9923Z" fill="black"/>
<path d="M83.0348 16.7821V0.217949H86.8735V9.72051L90.5327 5.23077H94.798L90.3531 10.5051L95 16.7821H90.5776L86.8735 11.7256V16.7821H83.0348Z" fill="black"/>
</svg>
