<svg width="48" height="48" viewBox="0 0 48 48" fill="none" xmlns="http://www.w3.org/2000/svg">
<path d="M48 24C48 37.2548 37.2548 48 24 48C10.7452 48 0 37.2548 0 24C0 10.7452 10.7452 0 24 0C37.2548 0 48 10.7452 48 24Z" fill="#0866FF"/>
<path fill-rule="evenodd" clip-rule="evenodd" d="M15.4945 1.51579V16.6807H15.7977C16.2331 15.7166 16.8629 14.737 17.6871 13.7417C18.5268 12.731 19.6153 11.8913 20.9526 11.2226C22.3055 10.5384 23.9849 10.1963 25.9909 10.1963C28.6033 10.1963 31.0136 10.8805 33.2218 12.2489C35.4299 13.6018 37.1949 15.6466 38.5166 18.3835C39.8384 21.1048 40.4993 24.5181 40.4993 28.6233C40.4993 32.6197 39.8539 35.9941 38.5633 38.7465C37.2882 41.4834 35.5465 43.5593 33.3384 44.9744C31.1458 46.3739 28.6889 47.0737 25.9676 47.0737C24.0394 47.0737 22.3988 46.7549 21.0459 46.1173C19.7086 45.4798 18.6123 44.6789 17.7571 43.7148C16.9018 42.7352 16.2487 41.7477 15.7977 40.7525H15.3545V46.4441C11.522 44.9854 8.15982 42.5729 5.55789 39.4967V8.51597C8.19145 5.4024 11.6039 2.96878 15.4945 1.51579ZM16.1709 34.1514C15.58 32.5653 15.2846 30.7071 15.2846 28.5767C15.2846 26.4463 15.58 24.5958 16.1709 23.0252C16.7618 21.4547 17.6093 20.2417 18.7134 19.3865C19.833 18.5312 21.2014 18.1036 22.8187 18.1036C24.4514 18.1036 25.8276 18.5468 26.9472 19.4331C28.0669 20.3195 28.9144 21.548 29.4897 23.1185C30.0651 24.6891 30.3528 26.5085 30.3528 28.5767C30.3528 30.6604 30.0573 32.5031 29.4664 34.1048C28.891 35.6909 28.0435 36.9349 26.9239 37.8368C25.8043 38.7232 24.4359 39.1664 22.8187 39.1664C21.217 39.1664 19.8563 38.731 18.7367 37.8602C17.6171 36.9738 16.7618 35.7376 16.1709 34.1514Z" fill="white"/>
</svg>
