<svg width="48" height="48" viewBox="0 0 48 48" fill="none" xmlns="http://www.w3.org/2000/svg">
<path d="M48 24C48 37.2548 37.2548 48 24 48C10.7452 48 0 37.2548 0 24C0 10.7452 10.7452 0 24 0C37.2548 0 48 10.7452 48 24Z" fill="white"/>
<path d="M34.0441 45.9199C42.2825 42.1088 48 33.7543 48 24.061C48 10.7725 37.2548 0 24 0C10.7452 0 0 10.7725 0 24.061C0 34.2652 6.33608 42.9858 15.2792 46.4842V14.7628L15.2893 14.7614V6.58511H22.2316V13.7947L22.2639 13.7902V25.2666C24.1556 24.5371 26.3869 23.9536 28.9576 23.9536C34.1962 23.9536 36.2334 27.2117 36.2334 32.5122V38.6394C36.2334 41.5562 35.8054 44.122 34.0441 45.9199Z" fill="#0866FF"/>
<path d="M22.2639 31.3451V42.4324C23.2825 42.5297 24.1556 42.5297 25.1257 42.5297C28.6181 42.5297 29.2487 40.9249 29.2487 38.688V32.5608C29.2487 31.0047 28.5696 30.0322 26.7264 30.0322C25.2227 30.0322 23.5736 30.6643 22.2639 31.3451Z" fill="#0866FF"/>
</svg>
